<svg xmlns="http://www.w3.org/2000/svg" width="162" height="160" viewBox="0 0 162 160">
    <g fill="none" fill-rule="evenodd">
        <path fill="#FAD31F" d="M9.997 94.104c0-35.067 28.428-63.496 63.495-63.496 35.068 0 63.496 28.429 63.496 63.496 0 35.067-28.428 63.496-63.496 63.496-35.067 0-63.495-28.429-63.495-63.496"/>
        <path fill="#000100" d="M47.384 152.371l2.12-3.726c12.046 6.855 25.781 8.094 38.161 4.56l1.145 4.164c-13.443 3.805-28.349 2.44-41.426-4.998M38.545 37.42l1.92 3.832C28.07 47.455 19.402 58.184 15.459 70.44l-4.098-1.365c4.31-13.289 13.732-24.92 27.184-31.655"/>
        <path fill="#FF0636" d="M51.675 147.675c-8.437 11.676-24.742 14.303-36.418 5.865C3.58 145.104.954 128.8 9.391 117.122c8.436-11.676 24.742-14.302 36.418-5.865 11.677 8.437 14.303 24.741 5.866 36.418"/>
        <path stroke="#000" stroke-width="6.096" d="M48.641 146.19c-8.145 11.272-23.886 13.808-35.158 5.663C2.21 143.709-.325 127.967 7.82 116.695c8.145-11.273 23.885-13.808 35.158-5.663 11.272 8.144 13.808 23.886 5.663 35.158z"/>
        <path stroke="#000" stroke-width="6.278" d="M43.872 110.909l12.223-16.957"/>
        <path fill="#C8D113" d="M40.075 105.76c-13.748-6.049-12.6-18.61-9.753-25.08l1.265-2.874 2.873 1.265c4.22 1.858 7.742 5.751 9.659 10.68 1.917 4.93 1.95 10.178.093 14.401l-1.265 2.872-2.872-1.264z"/>
        <path fill="#000" d="M29.977 73.67l-2.527 5.745c-.928 2.107-2.948 7.691-1.686 14.042.938 4.717 3.962 11.178 13.046 15.176l5.745 2.528 2.53-5.746c4.588-10.429-.932-24.628-11.362-29.218l-5.746-2.528zm3.218 8.273c7.272 3.201 11.343 13.672 8.143 20.944-12.119-5.333-10.277-16.096-8.143-20.944z"/>
        <path stroke="#FFF" stroke-linecap="round" stroke-linejoin="round" stroke-width="3.139" d="M13.95 125.883c2.499-7.099 10.28-10.828 17.38-8.329"/>
        <path fill="#C8D113" d="M49.134 52.69c-5.555-3.96-22.84-17.192-29.689-33.041 7.21 2.875 21.406 10.336 34.846 27.885l-5.157 5.157z"/>
        <path fill="#000" d="M15.174 15.47c6.182 22.336 34.27 40.633 34.27 40.633l8.322-8.322c-20.256-27.599-42.592-32.31-42.592-32.31m10.335 9.931c6.923 3.832 16.155 10.518 25.274 21.918l-1.92 1.92c-5.522-4.116-16.42-13.022-23.354-23.838"/>
        <path fill="#C8D113" d="M53.964 49.157c-2.863-6.191-11.319-26.252-9.416-43.411C49.388 11.816 58.02 25.33 61 47.232l-7.035 1.925z"/>
        <path fill="#000" d="M42.91 0c-5.7 22.463 9.632 52.273 9.632 52.273l11.353-3.105C59.975 15.16 42.91.002 42.91.002m4.047 13.732c4.116 6.76 8.827 17.146 11.102 31.576l-2.623.717c-2.764-6.307-7.828-19.44-8.48-32.293"/>
        <path fill="#FF7300" d="M73.022 57.519c3.059 6.619.172 14.464-6.447 17.521-6.618 3.059-14.463.172-17.522-6.446-3.057-6.619-.172-14.464 6.448-17.521 6.618-3.059 14.462-.172 17.521 6.446"/>
        <path fill="#FF7300" d="M61.542 64.146l10.084-4.66a1.682 1.682 0 0 1 2.349 1.168l6.144 27.96 4.95 22.535c.388 1.762-1.892 2.815-2.983 1.378L68.135 94.152 50.823 71.35a1.683 1.683 0 0 1 .635-2.546l10.084-4.66z"/>
        <path fill="#000" d="M60.712 46.256c-2.033 0-4.1.432-6.067 1.341-7.262 3.355-10.423 11.946-7.069 19.208a14.647 14.647 0 0 0 2.408 3.641l.057.061 18.454 24.315 15.307 20.145c.388.512.915.734 1.433.734 1.069 0 2.102-.942 1.817-2.235l-5.42-24.714-6.558-29.812-.008-.082a14.665 14.665 0 0 0-1.213-4.194 14.466 14.466 0 0 0-13.141-8.408m0 6.103a8.402 8.402 0 0 1 7.602 4.864c.342.742.577 1.547.697 2.392v.006l.035.318.07.312L75.67 90.06l1.27 5.795-3.585-4.72-18.453-24.316-.198-.26-.222-.237a8.52 8.52 0 0 1-1.366-2.076c-1.936-4.189-.102-9.174 4.087-11.109a8.31 8.31 0 0 1 3.508-.777"/>
        <path stroke="#FFF" stroke-linecap="round" stroke-linejoin="round" stroke-width="3.139" d="M56.656 62.138l8.629 11.198"/>
        <path fill="#0028FF" d="M94.673 87.862h63.063l-12.206 38.65h-38.65z"/>
        <path stroke="#000" stroke-linejoin="round" stroke-width="6.103" d="M95.653 88.229h63.063L146.51 126.88h-38.651z"/>
        <path stroke="#FFF" stroke-linecap="round" stroke-linejoin="round" stroke-width="3.139" d="M109.893 98.996h22.377"/>
        <path stroke="#000" stroke-linecap="square" stroke-linejoin="round" stroke-width="6.102" d="M140.408 76.023V63.817M128.202 71.954V49.578M115.996 69.92v8.137"/>
    </g>
</svg>
