<?xml version="1.0" encoding="utf-8"?>
<!-- Generator: Adobe Illustrator 23.0.4, SVG Export Plug-In . SVG Version: 6.00 Build 0)  -->
<svg version="1.1" id="Layer_1" xmlns="http://www.w3.org/2000/svg" xmlns:xlink="http://www.w3.org/1999/xlink" x="0px" y="0px"
	 viewBox="0 0 213.8 213.8" style="enable-background:new 0 0 213.8 213.8;" xml:space="preserve">
<style type="text/css">
	.st0{fill-rule:evenodd;clip-rule:evenodd;fill:#FAD31F;}
	.st1{fill-rule:evenodd;clip-rule:evenodd;fill:#000100;}
	.st2{fill-rule:evenodd;clip-rule:evenodd;fill:#FF0636;}
	.st3{fill:none;stroke:#000000;stroke-width:6.096;}
	.st4{fill:none;stroke:#000000;stroke-width:6.278;}
	.st5{fill-rule:evenodd;clip-rule:evenodd;fill:#C8D113;}
	.st6{fill-rule:evenodd;clip-rule:evenodd;}
	.st7{fill:none;stroke:#FFFFFF;stroke-width:3.139;stroke-linecap:round;stroke-linejoin:round;}
	.st8{fill-rule:evenodd;clip-rule:evenodd;fill:#FF7300;}
	.st9{fill-rule:evenodd;clip-rule:evenodd;fill:#0028FF;}
	.st10{fill:none;stroke:#000000;stroke-width:6.103;stroke-linejoin:round;}
	.st11{fill:none;stroke:#000000;stroke-width:6.102;stroke-linecap:square;stroke-linejoin:round;}
</style>
<g>
	<path class="st0" d="M13.3,125.1c0-46.2,37.5-83.7,83.7-83.7s83.7,37.5,83.7,83.7s-37.5,83.7-83.7,83.7
		C50.8,208.8,13.3,171.3,13.3,125.1"/>
	<path class="st1" d="M61,201.9l2.8-4.9c15.9,9,34,10.7,50.3,6l1.5,5.5C97.8,213.5,78.2,211.7,61,201.9 M50.9,50.4l2.5,5
		c-16.3,8.2-27.8,22.3-33,38.5L15,92.1C20.8,74.6,33.2,59.3,50.9,50.4"/>
	<path class="st2" d="M66.8,195c-11.1,15.4-32.6,18.8-48,7.7s-18.8-32.6-7.7-48s32.6-18.8,48-7.7S77.9,179.6,66.8,195"/>
	<path class="st3" d="M64.2,193.7c-10.7,14.9-31.5,18.2-46.3,7.5C3,190.5-0.3,169.7,10.4,154.9c10.7-14.9,31.5-18.2,46.3-7.5
		C71.6,158.1,74.9,178.9,64.2,193.7z"/>
	<path class="st4" d="M57.9,147.2L74,124.9"/>
	<path class="st5" d="M52.9,140.5c-18.1-8-16.6-24.5-12.9-33l1.7-3.8l3.8,1.7c5.6,2.4,10.2,7.6,12.7,14.1s2.6,13.4,0.1,19l-1.7,3.8
		C56.7,142.1,52.9,140.5,52.9,140.5z"/>
	<path class="st6" d="M39.6,98.2l-3.3,7.6c-1.2,2.8-3.9,10.1-2.2,18.5c1.2,6.2,5.2,14.7,17.2,20l7.6,3.3l3.3-7.6
		c6-13.7-1.2-32.5-15-38.5L39.6,98.2L39.6,98.2z M43.9,109.1c9.6,4.2,14.9,18,10.7,27.6C38.6,129.6,41,115.5,43.9,109.1z"/>
	<path class="st7" d="M18.5,167c3.3-9.4,13.5-14.3,22.9-11"/>
	<path class="st5" d="M64.9,70.5C57.5,65.3,34.8,47.9,25.7,27c9.5,3.8,28.2,13.6,45.9,36.7L64.9,70.5L64.9,70.5z"/>
	<path class="st6" d="M20.1,21.5C28.3,50.9,65.3,75,65.3,75l11-11C49.5,27.7,20.1,21.5,20.1,21.5 M33.7,34.6
		c9.1,5,21.3,13.9,33.3,28.9L64.5,66C57.2,60.5,42.9,48.8,33.7,34.6"/>
	<path class="st5" d="M71.2,65.9c-3.8-8.2-14.9-34.6-12.4-57.2c6.4,8,17.8,25.8,21.7,54.7L71.2,65.9L71.2,65.9z"/>
	<path class="st6" d="M56.7,1.1C49.2,30.7,69.4,70,69.4,70l15-4.1C79.2,21.1,56.7,1.1,56.7,1.1 M62,19.2
		c5.4,8.9,11.6,22.6,14.6,41.6l-3.5,0.9C69.5,53.4,62.9,36.1,62,19.2"/>
	<path class="st8" d="M96.3,76.9c4,8.7,0.2,19.1-8.5,23.1s-19.1,0.2-23.1-8.5s-0.2-19.1,8.5-23.1C82,64.4,92.3,68.2,96.3,76.9"/>
	<path class="st8" d="M81.2,85.6l13.3-6.1c1.1-0.5,2.4,0,2.9,1.1c0.1,0.1,0.1,0.3,0.2,0.5l8.1,36.8l6.5,29.7
		c0.5,2.3-2.5,3.7-3.9,1.8l-18.4-24.2l-22.8-30c-0.7-1-0.6-2.4,0.4-3.1c0.1-0.1,0.3-0.2,0.4-0.2L81.2,85.6L81.2,85.6z"/>
	<path class="st6" d="M80.1,62c-2.7,0-5.4,0.6-8,1.8c-9.6,4.4-13.7,15.7-9.3,25.3c0.8,1.7,1.9,3.4,3.2,4.8l0.1,0.1l24.3,32
		l20.2,26.5c0.5,0.7,1.2,1,1.9,1c1.4,0,2.8-1.2,2.4-2.9l-7.1-32.6L99,78.8v-0.1c-0.3-1.9-0.8-3.8-1.6-5.5C94.3,66.4,87.6,62,80.1,62
		 M80.1,70.1c4.3,0,8.2,2.5,10,6.4c0.5,1,0.8,2,0.9,3.2l0,0v0.4l0.1,0.4l8.6,39.3l1.7,7.6l-4.7-6.2l-24.3-32l-0.3-0.3l-0.3-0.3
		c-0.7-0.8-1.3-1.7-1.8-2.7c-2.6-5.5-0.1-12.1,5.4-14.6C76.9,70.4,78.5,70.1,80.1,70.1"/>
	<path class="st7" d="M74.8,83l11.4,14.8"/>
	<path class="st9" d="M124.9,116.9H208l-16.1,50.9H141L124.9,116.9z"/>
	<path class="st10" d="M126.2,117.4h83.1l-16.1,50.9h-50.9L126.2,117.4z"/>
	<path class="st7" d="M144.9,131.5h29.5"/>
	<path class="st11" d="M185.1,101.3V85.2 M169.1,95.9V66.4 M153,93.2v10.7"/>
</g>
</svg>
