<svg xmlns="http://www.w3.org/2000/svg" xmlns:xlink="http://www.w3.org/1999/xlink" width="187" height="168" viewBox="0 0 187 168">
    <defs>
        <path id="a" d="M.392.054H154.34v112.97H.392z"/>
        <path id="c" d="M0 .433h42.59v40.633H0z"/>
        <path id="e" d="M0 167.716h186.34V0H0z"/>
    </defs>
    <g fill="none" fill-rule="evenodd">
        <g transform="translate(32 35.716)">
            <mask id="b" fill="#fff">
                <use xlink:href="#a"/>
            </mask>
            <path fill="#FAD31F" d="M154.34 64.78v44.56c0 2.043-1.74 3.683-3.862 3.683H6.97c-3.628 0-6.577-2.814-6.577-6.276V6.331C.392 2.848 3.342.054 6.97.054h113.717c3.63 0 6.578 2.794 6.578 6.277v39.68c10.737 6.48 27.076 18.646 27.076 18.768" mask="url(#b)"/>
        </g>
        <path fill="#FFF" d="M143.833 74.672H43.456a3.101 3.101 0 0 1-3.1-3.101V50.704a3.1 3.1 0 0 1 3.1-3.099h100.377a3.1 3.1 0 0 1 3.1 3.099v20.867a3.101 3.101 0 0 1-3.1 3.101M62.631 130.498H43.455a3.1 3.1 0 0 1-3.099-3.1V84.538a3.1 3.1 0 0 1 3.1-3.1H62.63a3.1 3.1 0 0 1 3.1 3.1v42.858a3.1 3.1 0 0 1-3.1 3.101"/>
        <path stroke="#D4C800" stroke-linecap="round" stroke-width="4.244" d="M83.685 94.762c0-6.366 2.122-6.366 6.365-6.366"/>
        <path fill="#C8D113" d="M33.96 74.37c-5.556-3.96-22.84-17.193-29.69-33.043 7.21 2.876 21.407 10.337 34.847 27.885L33.96 74.37z"/>
        <g transform="translate(0 36.716)">
            <mask id="d" fill="#fff">
                <use xlink:href="#c"/>
            </mask>
            <path fill="#000" d="M0 .433C6.18 22.77 34.268 41.067 34.268 41.067l8.322-8.323C22.334 5.145-.002.433-.002.433m10.426 10.04c6.941 3.865 16.16 10.553 25.181 21.812l-1.92 1.92a119.694 119.694 0 0 1-10.62-8.904c-5.255-4.966-9.505-9.964-12.64-14.828" mask="url(#d)"/>
        </g>
        <path fill="#C8D113" d="M38.79 70.835c-2.863-6.19-11.32-26.25-9.416-43.41 4.839 6.07 13.472 19.584 16.45 41.486l-7.034 1.924z"/>
        <path fill="#000" d="M27.735 21.679c-5.7 22.464 9.632 52.273 9.632 52.273l11.353-3.104c-3.92-34.01-20.985-49.17-20.985-49.17m4.047 13.734c4.116 6.759 8.827 17.147 11.102 31.576l-2.623.717c-2.764-6.306-7.828-19.44-8.48-32.293"/>
        <path fill="#FF7300" d="M57.847 79.198c3.06 6.618.172 14.463-6.447 17.521-6.618 3.06-14.463.172-17.522-6.447-3.057-6.618-.172-14.463 6.448-17.52 6.618-3.059 14.462-.173 17.521 6.446"/>
        <path fill="#FF7300" d="M46.367 85.825l10.084-4.659a1.682 1.682 0 0 1 2.349 1.166l6.143 27.961 4.952 22.534c.387 1.762-1.893 2.815-2.984 1.38L52.96 115.83l-17.312-22.8a1.682 1.682 0 0 1 .635-2.546l10.084-4.659z"/>
        <path fill="#000" d="M45.537 67.936c-2.032 0-4.1.43-6.066 1.34-7.262 3.355-10.423 11.947-7.07 19.209a14.641 14.641 0 0 0 2.409 3.64l.057.06 18.453 24.316 15.308 20.146c.388.512.915.734 1.433.734 1.068 0 2.1-.943 1.816-2.235l-5.42-24.715L59.9 80.62l-.01-.083a14.683 14.683 0 0 0-1.212-4.194 14.466 14.466 0 0 0-13.141-8.407m0 6.103a8.402 8.402 0 0 1 7.602 4.864c.342.74.577 1.546.697 2.392v.006l.036.318.069.31 6.556 29.81 1.27 5.795-3.586-4.721-18.453-24.315-.198-.261-.222-.237a8.514 8.514 0 0 1-1.366-2.075c-1.936-4.19-.102-9.174 4.087-11.11a8.295 8.295 0 0 1 3.509-.776"/>
        <path stroke="#D4C800" stroke-linecap="round" stroke-width="4.244" d="M124.002 94.762c0-6.366 2.122-6.366 6.365-6.366"/>
        <mask id="f" fill="#fff">
            <use xlink:href="#e"/>
        </mask>
        <path fill="#FAD31F" d="M43.368 139.323H78.49v-8.488H43.368z" mask="url(#f)"/>
        <path fill="#0A0A0A" d="M75.881 154.183c0 7.474-6.059 13.533-13.533 13.533-7.475 0-13.534-6.06-13.534-13.533 0-7.475 6.06-13.534 13.534-13.534 7.474 0 13.533 6.059 13.533 13.534" mask="url(#f)"/>
        <path stroke="#000" stroke-width="4.922" d="M45.49 154.177c0-9.376 7.6-16.976 16.976-16.976" mask="url(#f)"/>
        <path fill="#FAD31F" d="M65.759 136.394H78.49V88.396H65.759z" mask="url(#f)"/>
        <path fill="#FF0636" d="M119.663 74.005c-8.437 11.677-24.741 14.303-36.418 5.866-11.676-8.436-14.303-24.741-5.865-36.418 8.436-11.677 24.74-14.302 36.418-5.866 11.676 8.437 14.303 24.742 5.865 36.418" mask="url(#f)"/>
        <path stroke="#000" stroke-width="6.096" d="M116.63 72.52c-8.147 11.273-23.887 13.809-35.159 5.663-11.273-8.144-13.808-23.885-5.663-35.157 8.144-11.273 23.885-13.81 35.158-5.663 11.272 8.144 13.808 23.886 5.663 35.158z" mask="url(#f)"/>
        <path stroke="#000" stroke-width="6.278" d="M111.859 37.24l12.223-16.958" mask="url(#f)"/>
        <path fill="#C8D113" d="M108.061 32.09c-7.847-3.453-10.438-8.93-11.23-12.914-1.088-5.476.672-10.332 1.479-12.166l1.265-2.872 2.872 1.264c4.222 1.857 7.743 5.75 9.66 10.68 1.916 4.929 1.95 10.178.092 14.4l-1.265 2.874-2.873-1.265z" mask="url(#f)"/>
        <path fill="#000" d="M97.965 0l-2.528 5.746c-.928 2.106-2.948 7.691-1.685 14.041.938 4.717 3.962 11.18 13.046 15.176l5.745 2.53 2.528-5.747c4.59-10.43-.93-24.629-11.36-29.218L97.964 0zm3.218 8.274c7.271 3.201 11.343 13.672 8.142 20.944-12.119-5.334-10.276-16.096-8.142-20.944z" mask="url(#f)"/>
        <path stroke="#FFF" stroke-linecap="round" stroke-linejoin="round" stroke-width="3.139" d="M81.937 52.214c2.499-7.1 10.28-10.829 17.38-8.329" mask="url(#f)"/>
        <path fill="#FAD31F" d="M70.656 135.079h78.809V75.664H70.656z" mask="url(#f)"/>
        <path fill="#0A0A0A" d="M163.305 154.183c0 7.474-6.059 13.533-13.533 13.533-7.475 0-13.534-6.06-13.534-13.533 0-7.475 6.06-13.534 13.534-13.534 7.474 0 13.533 6.059 13.533 13.534" mask="url(#f)"/>
        <path stroke="#000" stroke-width="4.922" d="M131.886 154.177c0-9.376 7.601-16.976 16.976-16.976" mask="url(#f)"/>
        <path fill="#FFF" d="M102.072 110.865H78.804a3.1 3.1 0 0 1-3.1-3.1V84.54a3.1 3.1 0 0 1 3.1-3.1h23.268a3.1 3.1 0 0 1 3.1 3.1v23.226a3.1 3.1 0 0 1-3.1 3.1M142.257 110.865H118.99a3.1 3.1 0 0 1-3.1-3.1V84.54a3.1 3.1 0 0 1 3.1-3.1h23.267a3.101 3.101 0 0 1 3.101 3.1v23.226c0 1.712-1.389 3.1-3.1 3.1" mask="url(#f)"/>
        <path stroke="#000100" stroke-width="4" d="M146.208 35.438h-32.371M105.65 148.925H73.28" mask="url(#f)"/>
    </g>
</svg>
