<?xml version="1.0" encoding="utf-8"?>
<!-- Generator: Adobe Illustrator 23.0.4, SVG Export Plug-In . SVG Version: 6.00 Build 0)  -->
<svg version="1.1" id="Layer_1" xmlns="http://www.w3.org/2000/svg" xmlns:xlink="http://www.w3.org/1999/xlink" x="0px" y="0px"
	 viewBox="0 0 213.8 213.8" style="enable-background:new 0 0 213.8 213.8;" xml:space="preserve">
<style type="text/css">
	.st0{fill-rule:evenodd;clip-rule:evenodd;fill:#FAD31F;}
	.st1{fill-rule:evenodd;clip-rule:evenodd;fill:#FFFFFF;}
	.st2{fill:none;stroke:#D4C800;stroke-width:4.244;stroke-linecap:round;}
	.st3{fill-rule:evenodd;clip-rule:evenodd;fill:#C8D113;}
	.st4{fill-rule:evenodd;clip-rule:evenodd;}
	.st5{fill-rule:evenodd;clip-rule:evenodd;fill:#FF7300;}
	.st6{fill-rule:evenodd;clip-rule:evenodd;fill:#0A0A0A;}
	.st7{fill:none;stroke:#000000;stroke-width:4.922;}
	.st8{fill-rule:evenodd;clip-rule:evenodd;fill:#FF0636;}
	.st9{fill:none;stroke:#000000;stroke-width:6.096;}
	.st10{fill:none;stroke:#000000;stroke-width:6.278;}
	.st11{fill:none;stroke:#FFFFFF;stroke-width:3.139;stroke-linecap:round;stroke-linejoin:round;}
	.st12{fill:none;stroke:#000100;stroke-width:4;}
</style>
<g>
	<g transform="translate(32 35.716)">
		<path class="st0" d="M180.3,86v50.8c0,2.3-2,4.2-4.4,4.2H12.4c-4.1,0-7.5-3.2-7.5-7.2V19.4c0-4,3.4-7.2,7.5-7.2H142
			c4.1,0,7.5,3.2,7.5,7.2v45.2C161.7,72,180.3,85.8,180.3,86"/>
	</g>
	<path class="st1" d="M163.9,92.3H49.5c-2,0-3.5-1.6-3.5-3.5V65c0-2,1.6-3.5,3.5-3.5h114.4c2,0,3.5,1.6,3.5,3.5v23.8
		C167.4,90.7,165.9,92.3,163.9,92.3 M71.4,155.9H49.5c-2,0-3.5-1.6-3.5-3.5v-48.8c0-2,1.6-3.5,3.5-3.5h21.8c2,0,3.5,1.6,3.5,3.5l0,0
		v48.8C74.9,154.3,73.3,155.9,71.4,155.9L71.4,155.9"/>
	<path class="st2" d="M95.4,115.2c0-7.3,2.4-7.3,7.3-7.3"/>
	<path class="st3" d="M38.7,91.9c-6.3-4.5-26-19.6-33.8-37.7C13.1,57.5,29.3,66,44.6,86L38.7,91.9z"/>
	<g transform="translate(0 36.716)">
		<path class="st4" d="M0,12.8c7,25.5,39,46.3,39,46.3l9.5-9.5C25.5,18.2,0,12.8,0,12.8 M11.9,24.2c7.9,4.4,18.4,12,28.7,24.9
			l-2.2,2.2c-4.2-3.1-8.3-6.5-12.1-10.1C20.3,35.5,15.5,29.8,11.9,24.2"/>
	</g>
	<path class="st3" d="M44.2,87.9C40.9,80.8,31.3,58,33.5,38.4c5.5,6.9,15.4,22.3,18.7,47.3L44.2,87.9z"/>
	<path class="st4" d="M31.6,31.9c-6.5,25.6,11,59.6,11,59.6L55.5,88C51.1,49.1,31.6,31.9,31.6,31.9 M36.2,47.5
		c4.7,7.7,10.1,19.5,12.7,36l-3,0.8C42.7,77.1,37,62.2,36.2,47.5"/>
	<path class="st5" d="M65.9,97.4c3.5,7.5,0.2,16.5-7.3,20s-16.5,0.2-20-7.3s-0.2-16.5,7.3-20C53.5,86.6,62.4,89.9,65.9,97.4"/>
	<path class="st5" d="M52.8,105l11.5-5.3c1-0.4,2.1,0,2.5,0.9c0.1,0.1,0.1,0.3,0.1,0.4l7,31.9l5.6,25.7c0.4,2-2.2,3.2-3.4,1.6
		l-15.9-20.9l-19.7-26c-0.6-0.8-0.5-2,0.4-2.7c0.1-0.1,0.2-0.2,0.4-0.2C41.3,110.3,52.8,105,52.8,105z"/>
	<path class="st4" d="M51.9,84.6c-2.3,0-4.7,0.5-6.9,1.5c-8.3,3.8-11.9,13.6-8.1,21.9c0.7,1.5,1.6,2.9,2.7,4.1l0.1,0.1l21,27.7
		l17.4,23c0.4,0.6,1,0.8,1.6,0.8c1.2,0,2.4-1.1,2.1-2.5L75.7,133l-7.5-34v-0.1c-0.2-1.7-0.7-3.3-1.4-4.8
		C64.2,88.3,58.3,84.6,51.9,84.6 M51.9,91.5c3.7,0,7.1,2.2,8.7,5.5c0.4,0.8,0.7,1.8,0.8,2.7l0,0v0.4l0.1,0.4l7.5,34l1.4,6.6
		l-4.1-5.4l-21-27.7l-0.2-0.3l-0.3-0.3c-0.6-0.7-1.2-1.5-1.6-2.4c-2.2-4.8-0.1-10.5,4.7-12.7C49.1,91.8,50.5,91.5,51.9,91.5"/>
	<path class="st2" d="M141.3,115.2c0-7.3,2.4-7.3,7.3-7.3"/>
	<path class="st0" d="M49.4,165.9h40v-9.7h-40V165.9z"/>
	<path class="st6" d="M86.5,182.9c0,8.5-6.9,15.4-15.4,15.4s-15.4-6.9-15.4-15.4s6.9-15.4,15.4-15.4S86.5,174.4,86.5,182.9"/>
	<path class="st7" d="M51.8,182.9c0-10.7,8.7-19.3,19.3-19.3"/>
	<path class="st0" d="M74.9,162.6h14.5v-54.7H74.9V162.6z"/>
	<path class="st8" d="M134,90.4c-9.6,13.3-28.2,16.3-41.5,6.7s-16.3-28.2-6.7-41.5S114,39.4,127.3,49S143.6,77.1,134,90.4"/>
	<path class="st9" d="M132.9,89.8c-9.3,12.8-27.2,15.7-40.1,6.5C80,87,77.1,69,86.4,56.2s27.2-15.7,40.1-6.5
		C139.3,59,142.2,77,132.9,89.8L132.9,89.8z"/>
	<path class="st10" d="M127.5,49.6l13.9-19.3"/>
	<path class="st3" d="M123.1,43.7c-8.9-3.9-11.9-10.2-12.8-14.7c-1.2-6.2,0.8-11.8,1.7-13.9l1.4-3.3l3.3,1.4
		c4.8,2.1,8.8,6.6,11,12.2s2.2,11.6,0.1,16.4l-1.4,3.3L123.1,43.7L123.1,43.7z"/>
	<path class="st4" d="M111.6,7.2l-2.9,6.5c-1.1,2.4-3.4,8.8-1.9,16c1.1,5.4,4.5,12.7,14.9,17.3l6.5,2.9l2.9-6.5
		c5.2-11.9-1.1-28.1-12.9-33.3L111.6,7.2L111.6,7.2z M115.3,16.6c8.3,3.6,12.9,15.6,9.3,23.9C110.8,34.4,112.9,22.1,115.3,16.6z"/>
	<path class="st11" d="M93.4,66.7c2.8-8.1,11.7-12.3,19.8-9.5"/>
	<path class="st0" d="M80.5,161.1h89.8V93.4H80.5V161.1z"/>
	<path class="st6" d="M186.1,182.9c0,8.5-6.9,15.4-15.4,15.4s-15.4-6.9-15.4-15.4s6.9-15.4,15.4-15.4S186.1,174.4,186.1,182.9"/>
	<path class="st7" d="M150.3,182.9c0-10.7,8.7-19.3,19.3-19.3"/>
	<path class="st1" d="M116.3,133.5H89.8c-2,0-3.5-1.6-3.5-3.5v-26.5c0-2,1.6-3.5,3.5-3.5h26.5c2,0,3.5,1.6,3.5,3.5V130
		C119.8,131.9,118.3,133.5,116.3,133.5 M162.1,133.5h-26.5c-2,0-3.5-1.6-3.5-3.5v-26.5c0-2,1.6-3.5,3.5-3.5h26.5
		c2,0,3.5,1.6,3.5,3.5V130C165.6,131.9,164.1,133.5,162.1,133.5"/>
	<path class="st12" d="M166.6,47.6h-36.9 M120.4,176.9H83.5"/>
</g>
</svg>
