<svg xmlns="http://www.w3.org/2000/svg" xmlns:xlink="http://www.w3.org/1999/xlink" width="214" height="82" viewBox="0 0 214 82">
    <defs>
        <path id="a" d="M0 81.892h213.087V0H0z"/>
    </defs>
    <g fill="none" fill-rule="evenodd">
        <path fill="#FF0636" d="M50.437 55.917c-6.375 8.822-18.694 10.807-27.517 4.432-8.822-6.374-10.806-18.695-4.432-27.517 6.375-8.822 18.694-10.807 27.516-4.432 8.823 6.374 10.807 18.695 4.433 27.517"/>
        <path stroke="#000" stroke-width="4.606" d="M49.1 54.795c-6.153 8.517-18.047 10.433-26.563 4.278-8.518-6.154-10.433-18.047-4.28-26.564 6.155-8.517 18.048-10.433 26.565-4.278 8.517 6.153 10.433 18.046 4.279 26.564z"/>
        <path stroke="#000" stroke-width="4.743" d="M45.496 28.137l9.235-12.813"/>
        <path fill="#C8D113" d="M42.628 24.247c-10.387-4.57-9.52-14.063-7.369-18.95l.955-2.171 2.171.955c6.641 2.923 10.292 12.31 7.369 18.95l-.955 2.17-2.171-.954z"/>
        <path fill="#000" d="M34.998 0l-1.91 4.342c-3.248 7.383-1.948 17.44 8.584 22.076l4.342 1.91 1.91-4.342c1.655-3.76 1.644-8.388-.03-12.694-1.674-4.307-4.792-7.726-8.554-9.382L34.998 0zm2.432 6.252c5.494 2.418 8.57 10.33 6.152 15.824-9.156-4.03-7.764-12.161-6.152-15.824z"/>
        <path stroke="#FFF" stroke-linecap="round" stroke-linejoin="round" stroke-width="2.372" d="M22.889 39.452c1.888-5.364 7.768-8.183 13.132-6.294"/>
        <path stroke="#000" stroke-width="3.679" d="M0 80.052h146.39M150.765 80.052h62.322"/>
        <path fill="#0028FF" d="M189.18 62.876l-23.248-.101.184-42.268 23.248.1z"/>
        <path stroke="#000" stroke-width="3.973" d="M167.073 20.998l10.073 8.019 12.171-9.518M181.023 19.344l6.702-11.427 10.716.047"/>
        <path stroke="#FFF" stroke-linecap="round" stroke-linejoin="round" stroke-width="2.171" d="M171.48 39.651l.046 8.813"/>
        <mask id="b" fill="#fff">
            <use xlink:href="#a"/>
        </mask>
        <path stroke="#000" stroke-width="3.679" d="M165.523 62.876h23.657v-42.95h-23.657z" mask="url(#b)"/>
        <path fill="#FAD31F" d="M96.845 62.772l-1.521-7.222a1.019 1.019 0 0 1 .785-1.204l50.358-10.607a1.018 1.018 0 0 1 1.203.784l1.522 7.223a1.02 1.02 0 0 1-.785 1.203L98.049 63.557a1.02 1.02 0 0 1-1.204-.785" mask="url(#b)"/>
        <path stroke="#000" stroke-width="3.816" d="M99.18 65.487l-1.52-7.223a1.017 1.017 0 0 1 .784-1.203l50.358-10.608a1.02 1.02 0 0 1 1.204.785l1.52 7.222a1.02 1.02 0 0 1-.783 1.204l-50.36 10.607a1.017 1.017 0 0 1-1.202-.784z" mask="url(#b)"/>
        <path stroke="#000" stroke-linecap="round" stroke-linejoin="round" stroke-width="3.816" d="M142.613 57.376l.97 4.605-12.828 2.703" mask="url(#b)"/>
        <path stroke="#000" stroke-linejoin="round" stroke-width="3.816" d="M151.107 50.68l5.066-1.068" mask="url(#b)"/>
        <path fill="#FF7300" d="M79.533 61.43l-5.54-4.877a1.02 1.02 0 0 1-.092-1.434l34.006-38.627a1.02 1.02 0 0 1 1.435-.091l5.54 4.877c.42.369.46 1.014.09 1.434L80.967 61.339c-.37.42-1.015.46-1.434.092" mask="url(#b)"/>
        <path stroke="#000" stroke-width="3.816" d="M83.028 62.208l-5.54-4.877a1.02 1.02 0 0 1-.09-1.434l34.005-38.627a1.02 1.02 0 0 1 1.434-.091l5.54 4.877c.42.369.46 1.014.09 1.433L84.462 62.117a1.02 1.02 0 0 1-1.434.09z" mask="url(#b)"/>
        <path stroke="#000" stroke-linecap="round" stroke-linejoin="round" stroke-width="3.816" d="M112.979 29.724l3.532 3.11-8.662 9.84" mask="url(#b)"/>
        <path stroke="#000" stroke-linejoin="round" stroke-width="3.816" d="M115.778 19.277l3.421-3.886" mask="url(#b)"/>
        <path stroke="#000" stroke-width="3.816" d="M79.126 59.88l-4.007 4.622M97.709 61.228l-5.86 1.256" mask="url(#b)"/>
    </g>
</svg>
